<svg xmlns="http://www.w3.org/2000/svg" width="218" height="103.512" viewBox="0 0 218 103.512">
  <g id="Group_131" data-name="Group 131" transform="translate(-851 -21.001)">
    <path id="Path_228" data-name="Path 228" d="M0,.178V.412a2.719,2.719,0,0,1,1.869.56,2.635,2.635,0,0,1,.455,1.764V17.948a5.331,5.331,0,0,1-.176,1.6,1.153,1.153,0,0,1-.663.722A4.762,4.762,0,0,1,0,20.537v.235H7.679v-.235a8.749,8.749,0,0,1-2.132-.281,1.491,1.491,0,0,1-.957-.779,4.181,4.181,0,0,1-.265-1.706V10.71H7.266a3.467,3.467,0,0,1,2.708.927,5.761,5.761,0,0,1,1.058,3.192h.235V6.209h-.235A5.671,5.671,0,0,1,9.974,9.386a3.5,3.5,0,0,1-2.708.912H4.325V.59H7.444A9.5,9.5,0,0,1,10.9,1.1,4.28,4.28,0,0,1,12.96,2.87a12.419,12.419,0,0,1,1.339,3.6h.235l-.647-6.3ZM24.154,21.36a7.73,7.73,0,0,0,5.134-1.574,5.407,5.407,0,0,0,1.867-4.369,5.1,5.1,0,0,0-1.044-3.281,8.177,8.177,0,0,0-3.222-2.25L23.683,8.445A17.125,17.125,0,0,1,21.2,7.164a3.814,3.814,0,0,1-1.264-1.279,3.631,3.631,0,0,1-.4-1.8,3.522,3.522,0,0,1,1.28-2.911A5.3,5.3,0,0,1,24.241.147a5.315,5.315,0,0,1,4.282,1.677,8.729,8.729,0,0,1,1.661,5.119h.206V.855A11.819,11.819,0,0,0,24.977-.411a7.61,7.61,0,0,0-4.855,1.442A4.754,4.754,0,0,0,18.3,4.973a4.932,4.932,0,0,0,1.118,3.368,9.692,9.692,0,0,0,3.5,2.31l2.8,1.236a8.782,8.782,0,0,1,2.971,1.867,3.685,3.685,0,0,1,.911,2.6,4.229,4.229,0,0,1-1.264,3.281,4.981,4.981,0,0,1-3.5,1.163,5.635,5.635,0,0,1-4.56-1.883,8.8,8.8,0,0,1-1.824-5.178h-.235v6.149a12.437,12.437,0,0,0,2.868,1.088,12.749,12.749,0,0,0,3.075.382M54.838,10.945H46.189v.236a14.8,14.8,0,0,1,2.854.455,1.992,1.992,0,0,1,1.206.853,3.67,3.67,0,0,1,.324,1.75v4.737a3.979,3.979,0,0,1-1.882,1.309,7.8,7.8,0,0,1-2.854.516,7.271,7.271,0,0,1-4.31-1.325,8.661,8.661,0,0,1-2.913-3.722,13.622,13.622,0,0,1-1.044-5.486A13.642,13.642,0,0,1,38.54,4.9a7.861,7.861,0,0,1,2.78-3.516A7.356,7.356,0,0,1,45.571.147a5.943,5.943,0,0,1,4.6,1.81,7.7,7.7,0,0,1,1.78,5.1h.294V.5A21.256,21.256,0,0,0,46.16-.411,12.125,12.125,0,0,0,40.379.9,9.052,9.052,0,0,0,36.6,4.65a11.912,11.912,0,0,0-1.325,5.765,11.883,11.883,0,0,0,1.339,5.722,9.524,9.524,0,0,0,3.75,3.855A11.031,11.031,0,0,0,45.9,21.36,11.353,11.353,0,0,0,52.514,19.3v-5.8a4.216,4.216,0,0,1,.178-1.428,1.107,1.107,0,0,1,.662-.647,5.134,5.134,0,0,1,1.485-.249Zm25.655.589a9.445,9.445,0,0,0,5.354-1.382,4.813,4.813,0,0,0,2.059-4.3,4.811,4.811,0,0,0-2.059-4.295A9.434,9.434,0,0,0,80.493.178H73.52V.412a2.711,2.711,0,0,1,1.867.56,2.634,2.634,0,0,1,.457,1.764V17.918a5.438,5.438,0,0,1-.178,1.618,1.152,1.152,0,0,1-.662.736,4.771,4.771,0,0,1-1.485.265v.235H81.2v-.235a8.763,8.763,0,0,1-2.134-.281,1.488,1.488,0,0,1-.955-.779,4.156,4.156,0,0,1-.265-1.706V11.534ZM79.933.59a6.418,6.418,0,0,1,4.3,1.264,5.006,5.006,0,0,1,1.471,4,5.006,5.006,0,0,1-1.471,4,6.418,6.418,0,0,1-4.3,1.264H77.845V.59ZM91.289,20.772h6.649v-.235a4.762,4.762,0,0,1-1.485-.265,1.157,1.157,0,0,1-.663-.736,5.5,5.5,0,0,1-.176-1.618V10.445h2.031a6.39,6.39,0,0,1,2.118.279,3.018,3.018,0,0,1,1.323.971,10.707,10.707,0,0,1,1.236,2.162l1.648,3.59q1.117,2.442,1.647,3.324h3.766v-.235a3.078,3.078,0,0,1-1.853-.853,7.139,7.139,0,0,1-1.442-2.265l-1.707-3.795a5.416,5.416,0,0,0-2.147-2.53,6.1,6.1,0,0,0-3.178-.823v-.117a8.067,8.067,0,0,0,4.677-1.295,4.257,4.257,0,0,0,1.883-3.738,4.284,4.284,0,0,0-1.691-3.72Q102.232.177,98.379.178h-7.09V.412a2.716,2.716,0,0,1,1.869.56,2.635,2.635,0,0,1,.455,1.764V17.918a5.5,5.5,0,0,1-.176,1.618,1.152,1.152,0,0,1-.662.736,4.773,4.773,0,0,1-1.486.265Zm4.325-10.739V.59h2.5a7.844,7.844,0,0,1,3.311.558A3.026,3.026,0,0,1,103,2.694a6.386,6.386,0,0,1,.411,2.456,4.607,4.607,0,0,1-1.382,3.708q-1.383,1.177-4.59,1.176ZM120.3,21.36a9.355,9.355,0,0,0,5.075-1.412,9.8,9.8,0,0,0,3.53-3.9,12,12,0,0,0,1.28-5.575A12,12,0,0,0,128.9,4.9a9.8,9.8,0,0,0-3.53-3.9,9.827,9.827,0,0,0-10.15,0,9.776,9.776,0,0,0-3.53,3.9,12,12,0,0,0-1.28,5.576,12,12,0,0,0,1.28,5.575,9.776,9.776,0,0,0,3.53,3.9A9.355,9.355,0,0,0,120.3,21.36m0-.558a6.562,6.562,0,0,1-5.634-2.664q-1.957-2.661-1.958-7.663,0-5.121,1.913-7.723a7.491,7.491,0,0,1,11.356,0q1.912,2.6,1.912,7.723,0,5-1.956,7.663A6.564,6.564,0,0,1,120.3,20.8M134.712,23.1a3.527,3.527,0,0,0,2.913-1.236,5.535,5.535,0,0,0,1-3.56V2.737A4.244,4.244,0,0,1,138.8,1.31a1.107,1.107,0,0,1,.662-.647A5.177,5.177,0,0,1,140.95.412V.178H134.3V.412a2.711,2.711,0,0,1,1.867.56,2.626,2.626,0,0,1,.457,1.764V19.065q0,3.738-2.737,3.738a5.138,5.138,0,0,1-1.088-.089V22.8a4.97,4.97,0,0,0,1.912.294m24.89-9.768a19.894,19.894,0,0,1-1.045,4.34,3.858,3.858,0,0,1-1.839,2.074,8.161,8.161,0,0,1-3.56.617H149.1V10.415h2.943a4.292,4.292,0,0,1,1.97.384,2.6,2.6,0,0,1,1.147,1.264,9.186,9.186,0,0,1,.647,2.472h.236V5.914h-.236a9.186,9.186,0,0,1-.647,2.472,2.524,2.524,0,0,1-1.147,1.25,4.444,4.444,0,0,1-1.97.368H149.1V.59h4.149a6.859,6.859,0,0,1,3.016.528,3.742,3.742,0,0,1,1.647,1.737,17.279,17.279,0,0,1,1.163,3.617h.235l-.647-6.3H144.774V.412a2.716,2.716,0,0,1,1.869.56,2.635,2.635,0,0,1,.455,1.764V17.918a5.5,5.5,0,0,1-.176,1.618,1.152,1.152,0,0,1-.662.736,4.773,4.773,0,0,1-1.486.265v.235H159.1l.736-7.444ZM171.193.178h-6.649V.412a2.711,2.711,0,0,1,1.867.56,2.626,2.626,0,0,1,.457,1.764V17.918a5.5,5.5,0,0,1-.176,1.618,1.157,1.157,0,0,1-.663.736,4.771,4.771,0,0,1-1.485.265v.235h6.649v-.235a4.773,4.773,0,0,1-1.486-.265,1.152,1.152,0,0,1-.662-.736,5.5,5.5,0,0,1-.176-1.618V2.737a4.244,4.244,0,0,1,.176-1.426,1.107,1.107,0,0,1,.662-.647,5.177,5.177,0,0,1,1.486-.251Zm-.558,8.884,6.06-5.883A13.324,13.324,0,0,1,179.24,1.09a6.046,6.046,0,0,1,2.28-.677V.178h-5.943V.412a4.62,4.62,0,0,1,1.515.206.646.646,0,0,1,.4.647,1.3,1.3,0,0,1-.324.75,12.85,12.85,0,0,1-1.295,1.339l-7,6.708,9.267,10.709h4.5v-.235a3.886,3.886,0,0,1-1.824-.457,10.554,10.554,0,0,1-1.736-1.485Zm28.92-9.443a1.723,1.723,0,0,1-.795.427,5.552,5.552,0,0,1-1.353.132H185.816a5.536,5.536,0,0,1-1.353-.132,1.723,1.723,0,0,1-.795-.427h-.148V6.857h.236a14.393,14.393,0,0,1,.838-4.134,2.952,2.952,0,0,1,1.545-1.691,8.168,8.168,0,0,1,2.853-.382h1.618V17.771a4.156,4.156,0,0,1-.265,1.706,1.492,1.492,0,0,1-.955.779,8.774,8.774,0,0,1-2.134.281v.235h8.708v-.235a8.76,8.76,0,0,1-2.132-.281,1.5,1.5,0,0,1-.957-.779,4.181,4.181,0,0,1-.265-1.706V.649h1.618a8.172,8.172,0,0,1,2.854.382,2.952,2.952,0,0,1,1.545,1.691,14.393,14.393,0,0,1,.838,4.134h.236V-.381Zm18.211,13.709a19.892,19.892,0,0,1-1.045,4.34,3.852,3.852,0,0,1-1.839,2.074,8.161,8.161,0,0,1-3.56.617h-4.06V10.415H210.2a4.292,4.292,0,0,1,1.97.384,2.6,2.6,0,0,1,1.147,1.264,9.187,9.187,0,0,1,.647,2.472h.236V5.914h-.236a9.187,9.187,0,0,1-.647,2.472,2.518,2.518,0,0,1-1.147,1.25A4.444,4.444,0,0,1,210.2,10h-2.943V.59h4.149a6.85,6.85,0,0,1,3.016.528,3.742,3.742,0,0,1,1.647,1.737,17.2,17.2,0,0,1,1.163,3.617h.235l-.647-6.3H202.937V.412a2.716,2.716,0,0,1,1.869.56,2.635,2.635,0,0,1,.455,1.764V17.918a5.5,5.5,0,0,1-.176,1.618,1.152,1.152,0,0,1-.662.736,4.773,4.773,0,0,1-1.486.265v.235h14.327L218,13.328Z" transform="translate(851 101.307)" fill="#f2f3f4"/>
    <path id="Path_230" data-name="Path 230" d="M0,0V25.552" transform="translate(915.342 98.961)" fill="#906f4d" stroke="#764c21" stroke-width="0.413"/>
    <path id="Path_231" data-name="Path 231" d="M0,0V4.328C.089,7.754,1.323,10,3.13,11.435A9.649,9.649,0,0,0,6.9,13.2a26.577,26.577,0,0,0,5.046.352l10.226,0c-.448-.322-.889-.841-1.277-1.183H12.2c-6.481,0-9.5-2.908-9.5-9.04V0Z" transform="translate(940.064 65.341)" fill="#906f4d"/>
    <path id="Path_232" data-name="Path 232" d="M5.237,0S.669-.006.486,0C-1.049.013-2.135.056-3.4.179A11.348,11.348,0,0,0-7.87,1.514c-4.368,2.463-4.252,8.426-4.252,8.426v1.141h2.7V10.17A9.208,9.208,0,0,1-6.689,3.136,7.536,7.536,0,0,1-2.91,1.318a26.576,26.576,0,0,1,3.947-.294c.527,0,3.135.007,3.135.007A7.1,7.1,0,0,1,5.237,0" transform="translate(952.186 21.005)" fill="#906f4d"/>
    <path id="Path_233" data-name="Path 233" d="M0,.291A5.536,5.536,0,0,1,3.1,3.262a14.108,14.108,0,0,1,.842,5.449V24.758l2.114-.006V7.71a9.713,9.713,0,0,0-1.22-5A7.866,7.866,0,0,0,0-.673Z" transform="translate(974.895 22.807)" fill="#906f4d"/>
    <path id="Path_234" data-name="Path 234" d="M8.71,9.06c-.4.03-.812.05-1.236.05A17.532,17.532,0,0,1-.737,7.077V.926S-.738.419-.779.1a4.1,4.1,0,0,0-.115-.57A9.312,9.312,0,0,0-3.537-5.13C-4.837-6.227-6.951-6.8-9.878-6.8h-4.309V6.618h4.066c3.454,0,4.756-1.464,5.2-5.651h.325v11.91h-.325c-.447-4.187-1.749-5.691-5.2-5.691h-4.066v9.755c0,1.545.285,2.562.9,3.009.569.488,1.829.772,3.739.812v.325H-20.161v-.325a3.823,3.823,0,0,0,2.642-.772,4.8,4.8,0,0,0,.569-2.8V-3.828c0-2.317-.61-3.09-3.211-3.212v-.325l19.524-.05L-.591-.721s.021.46.044.742A6.386,6.386,0,0,0-.4.9c1.13,4.466,4.222,7.434,8.8,7.434,4.106,0,6.586-2.235,6.586-6.138,0-2.967-1.585-4.552-5.366-6.179L5.766-5.687C1.377-7.6-.615-9.669-.615-13.532c0-4.34,3.176-7.268,8.311-7.437a45.8,45.8,0,0,1,8.187.719v9.441H15.6c0-7.395-2.7-9.537-7.962-9.471-3.941.049-6.546,2.114-6.546,5.528a4.419,4.419,0,0,0,1.22,3.334A15.758,15.758,0,0,0,6.824-8.736l4.429,1.992C15.277-5,17.148-2.718,17.148.9a7.423,7.423,0,0,1-3.813,6.884c-.269.15-1.053.528-1.053.528a23.061,23.061,0,0,1,3.264-.231A44.207,44.207,0,0,1,23.931,9.1v9.288H23.54c0-6.334-3.924-9.566-9.113-9.566-.212,0-.606-.007-.961.013-.6.033-1.171.1-1.171.1a9.125,9.125,0,0,0-6.076,3.516c-1.912,2.419-2.887,5.7-2.887,9.8,0,4.174,1.015,7.531,3.044,10.106a9.883,9.883,0,0,0,7.942,3.871,7.944,7.944,0,0,0,6.743-4.1V27.509c0-1.521-.352-2.5-1.015-3q-1.053-.7-4.8-1.054v-.312H26.719v.312c-2.538.117-2.788.314-2.788,2.771V32.24a11.942,11.942,0,0,1-9.367,4.713c-4.466,0-7.807-1.375-10.375-4.02a14.385,14.385,0,0,1-3.9-10.5c0-4.409,1.287-7.922,3.9-10.5A12.412,12.412,0,0,1,8.71,9.06" transform="translate(957.016 41.974)" fill="#765534"/>
  </g>
</svg>
