<svg xmlns="http://www.w3.org/2000/svg" xmlns:xlink="http://www.w3.org/1999/xlink" width="330.25" height="194.583" viewBox="0 0 330.25 194.583">
  <defs>
    <clipPath id="clip-path">
      <rect id="Rectangle_122" data-name="Rectangle 122" width="330.25" height="194.583" fill="none"/>
    </clipPath>
  </defs>
  <g id="Group_579" data-name="Group 579" clip-path="url(#clip-path)">
    <path id="Path_653" data-name="Path 653" d="M209.994,97.05c3.178,0,4.842-1.662,4.842-3.738,0-4.818-7.662-3.05-7.662-5.742,0-1.1,1.052-1.948,2.744-1.948a4.776,4.776,0,0,1,3.69,1.564l.894-1.332a6.171,6.171,0,0,0-4.584-1.792c-2.948,0-4.586,1.612-4.586,3.56,0,4.588,7.662,2.742,7.662,5.74,0,1.23-1.052,2.128-2.948,2.128a5.6,5.6,0,0,1-4.074-1.768L205,95.106a6.639,6.639,0,0,0,4.994,1.944m-8.94-7.3h-8.127a4.125,4.125,0,0,1,4.05-4.1,4.008,4.008,0,0,1,4.076,4.1m-3.82,7.3a6.826,6.826,0,0,0,4.92-1.918l-.922-1.258a5.38,5.38,0,0,1-3.844,1.59,4.34,4.34,0,0,1-4.434-4.282h9.992V90.7c0-3.714-2.2-6.634-5.942-6.634a6.5,6.5,0,0,0,.23,12.988m-9.456-.308V87.8c0-2.484-1.2-3.738-3.456-3.738a5.217,5.217,0,0,0-4.154,2.3,3.161,3.161,0,0,0-3.3-2.3,5.425,5.425,0,0,0-4.026,2.1V84.37h-1.918V96.742h1.918V87.7a4.322,4.322,0,0,1,3.256-1.924c1.642,0,2.282,1,2.282,2.562v8.4H180.3v-9.07a4.266,4.266,0,0,1,3.282-1.9c1.616,0,2.282,1,2.282,2.562v8.4Zm-26.106-1.406c-2.64,0-4.1-2.256-4.1-4.792,0-2.512,1.462-4.768,4.1-4.768s4.1,2.256,4.1,4.768c0,2.536-1.46,4.792-4.1,4.792m0,1.714c3.768,0,6.122-2.918,6.122-6.506s-2.354-6.482-6.122-6.482-6.124,2.894-6.124,6.482,2.356,6.506,6.124,6.506m-9.328-.308V79.656h-2.124V87.01h-10V79.656H138.1V96.742h2.124V88.9h10v7.84Zm-30.413-1.56c-2.512,0-4-1.972-4-4.69,0-2.742,1.486-4.716,4-4.716a4.681,4.681,0,0,1,3.69,1.974v5.434a4.636,4.636,0,0,1-3.69,2m-.308,6.582c3.024,0,5.918-1.278,5.918-5.2V84.37h-1.92v1.87a5.175,5.175,0,0,0-4.178-2.178c-3.254,0-5.506,2.458-5.506,6.43,0,4,2.278,6.4,5.506,6.4a5.257,5.257,0,0,0,4.178-2.2v1.868c0,2.614-1.948,3.614-4,3.614a4.779,4.779,0,0,1-4.024-1.666l-.972,1.384a6.316,6.316,0,0,0,5,1.868m-8.84-5.022V88.056c0-2.688-1.356-3.994-3.918-3.994a6.071,6.071,0,0,0-4.436,2.1V84.37H102.51V96.742h1.918V87.7a4.82,4.82,0,0,1,3.666-1.924c1.666,0,2.794.666,2.794,2.87v8.1ZM98.663,84.37H96.746V96.742h1.918Zm-.946-1.77A1.269,1.269,0,0,0,99,81.32a1.289,1.289,0,0,0-1.28-1.306,1.31,1.31,0,0,0-1.306,1.306,1.289,1.289,0,0,0,1.306,1.28M92.361,97.05a3.127,3.127,0,0,0,2.28-.792l-.564-1.46a1.819,1.819,0,0,1-1.306.538c-.82,0-1.23-.666-1.23-1.588v-7.69h2.51V84.37h-2.51V80.988H89.6V84.37H87.547v1.688H89.6v8.1c0,1.844.922,2.892,2.766,2.892M80.037,95.67a2.728,2.728,0,1,1,0-5.41,4.183,4.183,0,0,1,3.384,1.512v2.36a4.135,4.135,0,0,1-3.384,1.538m5.3,1.072v-8.5c0-3-2.148-4.176-4.788-4.176A6.478,6.478,0,0,0,75.6,86.11l.9,1.334a4.831,4.831,0,0,1,3.792-1.72c1.8,0,3.128.95,3.128,2.592v2.226a5.248,5.248,0,0,0-4.1-1.662,4.012,4.012,0,0,0-4.3,4.07,4.11,4.11,0,0,0,4.3,4.1,5.324,5.324,0,0,0,4.1-1.714v1.406ZM70.687,89.75H62.56a4.127,4.127,0,0,1,4.05-4.1,4.008,4.008,0,0,1,4.076,4.1m-3.818,7.3a6.825,6.825,0,0,0,4.918-1.918l-.92-1.258a5.388,5.388,0,0,1-3.846,1.59,4.341,4.341,0,0,1-4.434-4.282h9.994V90.7c0-3.714-2.2-6.634-5.944-6.634a6.5,6.5,0,0,0,.232,12.988M54.72,96.742V87.98A4.531,4.531,0,0,1,58.1,86.006a6.25,6.25,0,0,1,.742.052v-1.97A5.335,5.335,0,0,0,54.72,86.34V84.37H52.8V96.742Zm-11.066.308a7.677,7.677,0,0,0,6.506-3.406l-1.79-.972a5.817,5.817,0,0,1-4.716,2.484,6.579,6.579,0,0,1-6.586-6.944c0-4.1,2.844-6.946,6.586-6.946a5.751,5.751,0,0,1,4.716,2.486l1.764-1a7.572,7.572,0,0,0-6.48-3.38,8.838,8.838,0,0,0,0,17.676" transform="translate(40.772 92.819)" fill="#9d7953"/>
    <path id="Path_654" data-name="Path 654" d="M329.894,76.6c-.668,4.413-1.25,6.6-2.675,8.38-1.471,1.781-3.521,2.271-7.087,2.271h-6.15V72.192h4.458a5.132,5.132,0,0,1,3.966,1.339c.8.892,1.382,2.54,1.738,4.9h.358V65.373h-.358c-.356,2.362-.935,4.011-1.738,4.857a5.132,5.132,0,0,1-3.966,1.339h-4.458V57.307h6.285c2.853,0,4.814.579,5.927,1.781s2.052,3.566,2.9,7.131h.356l-.981-9.537H307.43v.356c2.853.135,3.521.981,3.521,3.521v23a5.326,5.326,0,0,1-.623,3.12,4.208,4.208,0,0,1-2.9.848v.356h21.7L330.25,76.6ZM302.306,55.837c-.579.579-1.649.846-3.254.846H281.493c-1.605,0-2.675-.267-3.254-.846h-.223V66.8h.358c.4-4.324.981-6.732,2.406-7.979S283.454,57.4,286.3,57.4h2.451V83.336c0,1.692-.31,2.807-.935,3.3-.668.534-2.05.846-4.146.892v.356h13.192v-.356c-2.093-.046-3.475-.358-4.1-.892-.668-.49-.981-1.605-.981-3.3V57.4h2.451c2.853,0,4.1.178,5.528,1.425s2,3.655,2.406,7.979h.358V55.837ZM258.5,70.141l9.181-8.912a20.211,20.211,0,0,1,3.877-3.165,8.63,8.63,0,0,1,3.432-1.026v-.356h-9v.356c2.273.046,2.9.358,2.9,1.293,0,.579-.8,1.605-2.451,3.165L255.821,71.658l14.038,16.223h6.821v-.356a5.7,5.7,0,0,1-2.764-.714,15.086,15.086,0,0,1-2.629-2.228Zm.846-13.459H249.269v.356c2.853.135,3.521.981,3.521,3.521v23a5.322,5.322,0,0,1-.625,3.12,4.2,4.2,0,0,1-2.9.848v.356h10.072v-.356c-1.471-.046-2.451-.358-2.853-.848-.445-.49-.668-1.514-.668-3.12v-23a4.07,4.07,0,0,1,.668-2.762,4.276,4.276,0,0,1,2.853-.759ZM241.782,76.6c-.67,4.413-1.25,6.6-2.675,8.38-1.471,1.781-3.521,2.271-7.087,2.271h-6.15V72.192h4.458a5.132,5.132,0,0,1,3.966,1.339c.8.892,1.382,2.54,1.738,4.9h.358V65.373h-.358c-.356,2.362-.935,4.011-1.738,4.857a5.132,5.132,0,0,1-3.966,1.339H225.87V57.307h6.285c2.853,0,4.814.579,5.927,1.781s2.05,3.566,2.9,7.131h.356l-.981-9.537H219.318v.356c2.853.135,3.521.981,3.521,3.521v23a5.326,5.326,0,0,1-.623,3.12,4.208,4.208,0,0,1-2.9.848v.356h21.7L242.138,76.6ZM204.076,91.4c3.879,0,5.929-2.586,5.929-7.265V60.559a4.07,4.07,0,0,1,.668-2.762,4.276,4.276,0,0,1,2.853-.759v-.356H203.454v.356c2.853.135,3.521.981,3.521,3.521V85.295c0,3.79-1.382,5.662-4.146,5.662a7.882,7.882,0,0,1-1.649-.135v.135a7.2,7.2,0,0,0,2.9.445m-30.35-7.532c-2.007-2.675-2.987-6.552-2.987-11.587,0-10.341,3.879-15.646,11.5-15.646s11.5,5.3,11.5,15.646c0,5.035-.981,8.912-2.942,11.587a9.982,9.982,0,0,1-8.556,4.057,9.851,9.851,0,0,1-8.513-4.057m19.253.223a16.982,16.982,0,0,0,4.235-11.81A16.984,16.984,0,0,0,192.98,60.47a13.917,13.917,0,0,0-10.741-4.679,13.761,13.761,0,0,0-10.7,4.679,16.806,16.806,0,0,0-4.278,11.812,16.8,16.8,0,0,0,4.278,11.81,13.76,13.76,0,0,0,10.7,4.679,13.917,13.917,0,0,0,10.741-4.679M144.846,57.307h3.788c3.165,0,5.261.579,6.374,1.738a7.277,7.277,0,0,1,1.649,5.17c0,5.126-2.584,7.4-9.046,7.4h-2.764Zm3.521,30.573v-.356c-1.471-.046-2.451-.358-2.853-.848-.445-.49-.668-1.514-.668-3.12V72.237h3.076a7.219,7.219,0,0,1,4.278.981,11.122,11.122,0,0,1,2.807,4.189l2.5,5.439c1.113,2.449,1.961,4.144,2.495,5.035H165.7v-.356c-2.185-.223-3.61-1.649-4.992-4.725l-2.586-5.749c-1.514-3.389-4.189-5.081-8.066-5.081v-.178a12.4,12.4,0,0,0,7.085-1.961A6.415,6.415,0,0,0,160,64.169c0-5.035-3.163-7.487-10.964-7.487H138.294v.356c2.853.135,3.521.981,3.521,3.521v23a5.343,5.343,0,0,1-.623,3.12,4.208,4.208,0,0,1-2.9.848v.356ZM121.091,57.307c5.84,0,8.736,2.673,8.736,7.977s-2.9,7.977-8.736,7.977h-3.163V57.307Zm.848,16.578a14.43,14.43,0,0,0,8.111-2.093c2.093-1.382,3.12-3.566,3.12-6.508s-1.026-5.126-3.12-6.506a14.412,14.412,0,0,0-8.111-2.1H111.376v.356c2.851.135,3.521.981,3.521,3.521v23a5.322,5.322,0,0,1-.625,3.12,4.2,4.2,0,0,1-2.9.848v.356h11.632v-.356c-2.1-.046-3.478-.358-4.1-.892-.67-.49-.981-1.605-.981-3.3v-9.45Zm-51.968-.892v.358q4.279.4,5.482,1.2c.757.579,1.158,1.694,1.158,3.432v7.176c-1.113,1.6-4.1,2.764-7.174,2.764a11.007,11.007,0,0,1-9.049-4.413c-2.317-2.942-3.475-6.775-3.475-11.543,0-4.679,1.113-8.424,3.3-11.188a10.663,10.663,0,0,1,8.825-4.146c5.927,0,9.448,3.833,9.671,10.474h.445V57.173a31.53,31.53,0,0,0-9.224-1.382q-7.621,0-12.034,4.413c-2.987,2.942-4.458,6.953-4.458,11.988,0,4.948,1.471,8.914,4.458,11.99a15.479,15.479,0,0,0,11.632,4.59,17.039,17.039,0,0,0,10.027-3.12v-8.78c0-2.809.625-3.389,3.521-3.521v-.358ZM36.591,88.772c6.595,0,10.606-3.343,10.606-9,0-3.966-2.05-6.463-6.463-8.378l-4.857-2.185a17.28,17.28,0,0,1-4.946-2.942,4.848,4.848,0,0,1-1.339-3.655c0-3.742,2.809-5.972,7.131-5.972,5.751,0,8.513,3.343,9,10.3h.312V57.709a17.759,17.759,0,0,0-8.2-1.918c-6.107,0-10.118,3.12-10.118,8.157,0,4.232,2.185,6.506,7,8.6l4.235,1.872c4.144,1.781,5.881,3.521,5.881,6.773,0,4.28-2.718,6.732-7.22,6.732-6.016,0-9.181-4.057-9.671-10.7h-.356v9.315a19.225,19.225,0,0,0,9,2.228M0,56.683v.356c2.853.135,3.521.981,3.521,3.521V83.6A5.246,5.246,0,0,1,2.9,86.677a4.2,4.2,0,0,1-2.9.848v.356H11.632v-.356c-2.1-.046-3.475-.358-4.1-.892-.668-.49-.981-1.605-.981-3.3v-10.7h4.456c3.79,0,5.215,1.649,5.705,6.239h.356V65.82h-.356c-.49,4.59-1.916,6.194-5.705,6.194H6.552V57.307h4.725c3.209,0,5.525.623,6.953,1.827,1.425,1.247,2.584,3.61,3.432,7.085h.356l-.981-9.537Z" transform="translate(0 65.241)" fill="#fff"/>
    <rect id="Rectangle_121" data-name="Rectangle 121" width="1.302" height="38.711" transform="translate(96.822 118.099)" fill="#9d7953"/>
    <path id="Path_655" data-name="Path 655" d="M62.194,30.963v6.556c.134,5.191,2,8.6,4.742,10.767a14.618,14.618,0,0,0,5.708,2.671,40.261,40.261,0,0,0,7.645.534l15.492,0c-.679-.488-1.347-1.273-1.935-1.792H80.671c-9.819,0-14.394-4.406-14.394-13.7V30.963Z" transform="translate(72.729 36.207)" fill="#9d7953"/>
    <path id="Path_656" data-name="Path 656" d="M88.492.008S81.571,0,81.294,0c-2.326.024-3.97.089-5.888.276A17.156,17.156,0,0,0,68.635,2.3c-6.617,3.731-6.441,12.765-6.441,12.765v1.729h4.083V15.411c0-4.686,1.564-8.285,4.148-10.654A11.378,11.378,0,0,1,76.15,2a40.228,40.228,0,0,1,5.979-.447c.8,0,4.749.013,4.749.013A10.636,10.636,0,0,1,88.492.008" transform="translate(72.729 0)" fill="#9d7953"/>
    <path id="Path_657" data-name="Path 657" d="M86.521,2.252a8.389,8.389,0,0,1,4.7,4.5c1.189,2.454,1.276,6.332,1.276,8.255v24.31l3.2-.007V13.492A14.7,14.7,0,0,0,93.848,5.92,11.917,11.917,0,0,0,86.515.792Z" transform="translate(101.169 0.926)" fill="#9d7953"/>
    <path id="Path_658" data-name="Path 658" d="M103.69,45.5c-.607.046-1.23.076-1.872.076A26.559,26.559,0,0,1,89.379,42.49V33.173s0-.768-.063-1.258a6.218,6.218,0,0,0-.174-.863,14.107,14.107,0,0,0-4-7.053c-1.97-1.662-5.172-2.525-9.606-2.525H69V41.8h6.159c5.233,0,7.2-2.217,7.881-8.56h.492V51.279h-.492c-.677-6.343-2.649-8.621-7.881-8.621H69V57.435c0,2.341.432,3.881,1.356,4.558.861.74,2.77,1.169,5.664,1.23v.492H59.953v-.492c2.031-.061,3.386-.49,4-1.169.553-.677.861-2.093.861-4.248V25.971c0-3.51-.924-4.682-4.864-4.866v-.492l29.577-.076L89.6,30.678s.033.7.067,1.124a9.67,9.67,0,0,0,.228,1.336C91.607,39.9,96.29,44.4,103.232,44.4c6.22,0,9.977-3.386,9.977-9.3,0-4.495-2.4-6.9-8.129-9.361L99.23,23.155c-6.649-2.894-9.667-6.033-9.667-11.884C89.563,4.7,94.375.261,102.154.005a69.38,69.38,0,0,1,12.4,1.089V15.4h-.43c0-11.2-4.091-14.448-12.062-14.348-5.97.074-9.916,3.2-9.916,8.374A6.694,6.694,0,0,0,94,14.473a23.872,23.872,0,0,0,6.836,4.063l6.71,3.018c6.1,2.649,8.929,6.1,8.929,11.578,0,4.783-2.078,8.365-5.777,10.428-.408.228-1.594.8-1.594.8a34.935,34.935,0,0,1,4.944-.349,66.97,66.97,0,0,1,12.7,1.538V59.62h-.592c0-9.6-5.944-14.491-13.806-14.491-.321,0-.918-.011-1.456.02-.909.05-1.775.152-1.775.152a13.824,13.824,0,0,0-9.2,5.326c-2.9,3.664-4.373,8.63-4.373,14.839,0,6.324,1.538,11.409,4.612,15.309a14.971,14.971,0,0,0,12.031,5.864A12.034,12.034,0,0,0,122.4,80.431V73.443c0-2.3-.534-3.783-1.538-4.551q-1.594-1.064-7.272-1.6v-.473h17.381V67.3c-3.844.178-4.224.475-4.224,4.2v9.118c-1,1.052-5.367,7.139-14.19,7.139-6.766,0-11.827-2.083-15.717-6.089-3.959-4.081-5.909-9.341-5.909-15.9,0-6.68,1.95-12,5.909-15.9A18.8,18.8,0,0,1,103.69,45.5" transform="translate(70.108 0.001)" fill="#9d7953"/>
  </g>
</svg>
