<svg xmlns="http://www.w3.org/2000/svg" xmlns:xlink="http://www.w3.org/1999/xlink" width="280.808" height="133.334" viewBox="0 0 280.808 133.334">
  <defs>
    <clipPath id="clip-path">
      <path id="Path_252" data-name="Path 252" d="M0,61.051H280.808V-72.283H0Z" transform="translate(0 72.283)" fill="none"/>
    </clipPath>
  </defs>
  <g id="Logo" clip-path="url(#clip-path)">
    <g id="Group_158" data-name="Group 158" transform="translate(0 102.913)">
      <path id="Path_249" data-name="Path 249" d="M0,.347v.3c2.426.114,2.994.834,2.994,2.994V23.237a4.461,4.461,0,0,1-.531,2.614A3.569,3.569,0,0,1,0,26.572v.3H9.891v-.3c-1.782-.039-2.955-.3-3.486-.758-.568-.417-.834-1.365-.834-2.8v-9.1H9.36c3.223,0,4.434,1.4,4.851,5.305h.3V8.117h-.3c-.417,3.9-1.629,5.266-4.851,5.266H5.571V.878H9.588c2.728,0,4.7.529,5.912,1.553,1.212,1.061,2.2,3.069,2.918,6.024h.3L17.887.347ZM31.113,27.633c5.608,0,9.018-2.843,9.018-7.655,0-3.372-1.743-5.5-5.5-7.124L30.506,11a14.693,14.693,0,0,1-4.206-2.5,4.122,4.122,0,0,1-1.138-3.108c0-3.182,2.389-5.078,6.063-5.078,4.89,0,7.238,2.843,7.655,8.755h.266V1.22A15.1,15.1,0,0,0,32.174-.411c-5.193,0-8.6,2.653-8.6,6.936,0,3.6,1.858,5.532,5.951,7.314l3.6,1.592c3.523,1.514,5,2.994,5,5.759,0,3.639-2.311,5.724-6.139,5.724-5.115,0-7.806-3.449-8.223-9.1h-.3v7.921a16.347,16.347,0,0,0,7.655,1.894M59.5,14.217v.3q3.638.34,4.661,1.022c.644.493.985,1.441.985,2.918v6.1c-.946,1.363-3.486,2.35-6.1,2.35a9.359,9.359,0,0,1-7.694-3.752c-1.97-2.5-2.955-5.761-2.955-9.815,0-3.979.946-7.163,2.8-9.513A9.066,9.066,0,0,1,58.7.308c5.039,0,8.033,3.259,8.223,8.906H67.3V.764A26.81,26.81,0,0,0,59.459-.411c-4.32,0-10.232,3.752-10.232,3.752s-3.791,5.912-3.791,10.193a13.963,13.963,0,0,0,3.791,10.2,13.162,13.162,0,0,0,9.891,3.9,14.488,14.488,0,0,0,8.526-2.653V17.515c0-2.389.531-2.881,2.994-2.994v-.3Zm44.188.758a12.269,12.269,0,0,0,6.9-1.78,6.157,6.157,0,0,0,2.653-5.534,6.152,6.152,0,0,0-2.653-5.532,12.255,12.255,0,0,0-6.9-1.782H94.7v.3c2.424.114,2.994.834,2.994,2.994V23.2a4.525,4.525,0,0,1-.531,2.653,3.569,3.569,0,0,1-2.463.721v.3h9.891v-.3c-1.782-.039-2.957-.3-3.486-.758-.57-.417-.834-1.365-.834-2.8V14.975Zm-.721-14.1c4.966,0,7.428,2.273,7.428,6.783s-2.463,6.783-7.428,6.783h-2.689V.878Zm23.192,26v-.3a3.387,3.387,0,0,1-2.426-.721,4.2,4.2,0,0,1-.568-2.653V13.573h2.616a6.139,6.139,0,0,1,3.638.834,9.457,9.457,0,0,1,2.387,3.562l2.123,4.624c.946,2.083,1.668,3.523,2.121,4.281H140.9v-.3c-1.858-.19-3.069-1.4-4.244-4.018l-2.2-4.888a6.9,6.9,0,0,0-6.858-4.32v-.151a10.546,10.546,0,0,0,6.024-1.668,5.454,5.454,0,0,0,2.426-4.814c0-4.281-2.689-6.366-9.323-6.366H117.59v.3c2.426.114,2.994.834,2.994,2.994V23.2a4.543,4.543,0,0,1-.529,2.653,3.578,3.578,0,0,1-2.464.721v.3Zm-2.994-26h3.221c2.691,0,4.473.493,5.419,1.478a6.187,6.187,0,0,1,1.4,4.4c0,4.359-2.2,6.29-7.692,6.29h-2.35Zm40.928,22.775a14.44,14.44,0,0,0,3.6-10.042,14.441,14.441,0,0,0-3.6-10.044,11.834,11.834,0,0,0-9.133-3.979,11.7,11.7,0,0,0-9.1,3.979,14.29,14.29,0,0,0-3.638,10.044,14.289,14.289,0,0,0,3.638,10.042,11.7,11.7,0,0,0,9.1,3.979,11.834,11.834,0,0,0,9.133-3.979m-16.371-.19c-1.706-2.274-2.54-5.571-2.54-9.852,0-8.793,3.3-13.3,9.778-13.3s9.776,4.51,9.776,13.3c0,4.281-.834,7.578-2.5,9.852a8.488,8.488,0,0,1-7.275,3.449,8.376,8.376,0,0,1-7.238-3.449m25.806,6.4c3.3,0,5.041-2.2,5.041-6.178V3.643a3.461,3.461,0,0,1,.568-2.348A3.636,3.636,0,0,1,181.559.65v-.3h-8.565v.3c2.426.114,2.994.834,2.994,2.994V24.676c0,3.223-1.175,4.814-3.525,4.814a6.7,6.7,0,0,1-1.4-.114v.114a6.121,6.121,0,0,0,2.463.378m32.061-12.582c-.57,3.752-1.062,5.609-2.274,7.126-1.251,1.514-2.994,1.931-6.026,1.931h-5.229V13.534h3.791a4.364,4.364,0,0,1,3.372,1.138,8.291,8.291,0,0,1,1.478,4.169h.3V7.737h-.3a7.977,7.977,0,0,1-1.478,4.13A4.364,4.364,0,0,1,195.846,13h-3.791V.878H197.4c2.426,0,4.093.493,5.039,1.514s1.743,3.033,2.464,6.063h.3L204.371.347H186.484v.3c2.426.114,2.994.834,2.994,2.994V23.2a4.543,4.543,0,0,1-.529,2.653,3.578,3.578,0,0,1-2.464.721v.3H204.94l.948-9.588ZM220.515.347h-8.564v.3c2.426.114,2.994.834,2.994,2.994V23.2a4.525,4.525,0,0,1-.531,2.653,3.569,3.569,0,0,1-2.463.721v.3h8.564v-.3a3.387,3.387,0,0,1-2.426-.721,4.2,4.2,0,0,1-.568-2.653V3.643A3.461,3.461,0,0,1,218.09,1.3,3.636,3.636,0,0,1,220.515.65ZM219.8,11.791,227.6,4.213a17.186,17.186,0,0,1,3.3-2.691A7.338,7.338,0,0,1,233.817.65v-.3h-7.655v.3c1.933.039,2.463.3,2.463,1.1,0,.493-.681,1.365-2.084,2.691l-9.018,8.64,11.936,13.794h5.8v-.3a4.843,4.843,0,0,1-2.35-.607,12.825,12.825,0,0,1-2.236-1.894ZM257.048-.372a3.913,3.913,0,0,1-2.767.719h-14.93a3.913,3.913,0,0,1-2.767-.719h-.19V8.95h.3c.339-3.676.832-5.724,2.046-6.784s2.274-1.212,4.7-1.212h2.084V23.01c0,1.439-.264,2.387-.8,2.8a6.351,6.351,0,0,1-3.525.758v.3h11.217v-.3c-1.78-.039-2.955-.3-3.486-.758-.568-.417-.834-1.365-.834-2.8V.954h2.084c2.426,0,3.486.151,4.7,1.212s1.7,3.108,2.046,6.784h.3V-.372Zm23.458,17.658c-.568,3.752-1.062,5.609-2.274,7.126-1.251,1.514-2.994,1.931-6.026,1.931h-5.229V13.534h3.791a4.364,4.364,0,0,1,3.372,1.138,8.291,8.291,0,0,1,1.478,4.169h.3V7.737h-.3a7.976,7.976,0,0,1-1.478,4.13A4.364,4.364,0,0,1,270.766,13h-3.791V.878h5.344c2.426,0,4.093.493,5.039,1.514s1.745,3.033,2.464,6.063h.3L279.292.347H261.4v.3c2.426.114,2.994.834,2.994,2.994V23.2a4.529,4.529,0,0,1-.529,2.653,3.578,3.578,0,0,1-2.464.721v.3H279.86l.948-9.588Z" transform="translate(0 0.411)" fill="#f2f3f4"/>
    </g>
    <g id="Group_159" data-name="Group 159" transform="translate(82.88 100.42)">
      <path id="Path_250" data-name="Path 250" d="M0,0V32.913" fill="none" stroke="#765534" stroke-width="1"/>
    </g>
    <g id="Group_160" data-name="Group 160" transform="translate(110.59 -0.001)">
      <path id="Path_251" data-name="Path 251" d="M27.65,26.2v-.4H12.873v.4q4.825.451,6.181,1.358c.856.653,1.308,1.909,1.308,3.87v5.941a10.233,10.233,0,0,1-8.686,5.277,12.735,12.735,0,0,1-10.23-4.986c-2.614-3.318-3.922-7.64-3.922-13.019,0-5.277,1.256-9.5,3.721-12.615A11.76,11.76,0,0,1,9.069,7.5s.736-.085,1.509-.127c.457-.026.965-.017,1.238-.017,6.687,0,11.741,4.163,11.741,12.322h.5V7.711A56.8,56.8,0,0,0,13.256,6.4a29.405,29.405,0,0,0-4.2.3s1.009-.487,1.356-.681a9.564,9.564,0,0,0,4.914-8.869c0-4.659-2.409-7.591-7.592-9.843L2.023-15.258A20.368,20.368,0,0,1-3.79-18.713a5.7,5.7,0,0,1-1.572-4.294c0-4.4,3.355-7.057,8.434-7.12,6.775-.085,10.254,2.675,10.254,12.2h.365V-30.089a59.271,59.271,0,0,0-10.544-.928c-6.617.22-10.708,3.99-10.708,9.581,0,4.973,2.566,7.644,8.221,10.1l4.973,2.2c4.87,2.094,6.912,4.137,6.912,7.959,0,5.027-3.193,7.906-8.482,7.906-5.9,0-9.887-3.824-11.341-9.575a7.856,7.856,0,0,1-.2-1.136c-.03-.363-.057-.957-.057-.957l-.057-8.622-25.151.065v.419c3.35.157,4.136,1.151,4.136,4.136v27.07c0,1.834-.262,3.038-.732,3.614-.524.576-1.675.943-3.4.994v.419h13.665v-.419c-2.461-.052-4.084-.419-4.816-1.046-.786-.577-1.153-1.885-1.153-3.876V5.252H-19.8c4.451,0,6.126,1.937,6.7,7.33h.419V-2.759H-13.1c-.576,5.392-2.25,7.277-6.7,7.277h-5.237V-12.76h5.55c3.77,0,6.493.734,8.168,2.147a12,12,0,0,1,3.405,6,5.029,5.029,0,0,1,.148.734c.052.417.053,1.07.053,1.07V5.11A22.581,22.581,0,0,0,2.86,7.728c.548,0,1.075-.024,1.592-.063a15.941,15.941,0,0,0-5.822,3.71C-4.738,14.691-6.4,19.216-6.4,24.9c0,5.578,1.658,10.051,5.027,13.521,3.307,3.405,7.609,5.178,13.362,5.178a15.377,15.377,0,0,0,12.066-6.072V29.771c0-3.167.325-3.418,3.591-3.569m-6.309-23,2.723-.009V-18.763A12.489,12.489,0,0,0,22.492-25.2a10.127,10.127,0,0,0-6.235-4.361l.007,1.241a7.121,7.121,0,0,1,3.992,3.828c1.013,2.084,1.085,5.383,1.085,7.019ZM-6.243-31.015s-5.884-.009-6.12-.007c-1.977.022-3.376.077-5.006.234a14.64,14.64,0,0,0-5.755,1.721C-28.751-25.9-28.6-18.213-28.6-18.213v1.47h3.472v-1.173c0-3.986,1.332-7.045,3.527-9.061a9.731,9.731,0,0,1,4.868-2.344,34.533,34.533,0,0,1,5.084-.376c.681-.006,4.038.009,4.038.009a9.149,9.149,0,0,1,1.372-1.326M-25.132,26.095H-28.6v5.574c.114,4.412,1.7,7.308,4.032,9.153a12.4,12.4,0,0,0,4.853,2.271,34.293,34.293,0,0,0,6.5.456l13.174,0c-.577-.415-1.147-1.081-1.647-1.522h-11.2c-8.347,0-12.239-3.746-12.239-11.645Z" transform="translate(32.737 31.022)" fill="#765534"/>
    </g>
  </g>
</svg>
