<svg xmlns="http://www.w3.org/2000/svg" width="356.249" height="41.756" viewBox="0 0 356.249 41.756">
  <g id="Group_152" data-name="Group 152" transform="translate(-781.875 97.511)">
    <g id="Group_151" data-name="Group 151" transform="translate(781.875 -97.511)">
      <path id="Path_228" data-name="Path 228" d="M0,.551V.935a4.443,4.443,0,0,1,3.054.915A4.306,4.306,0,0,1,3.8,4.733V29.59a8.712,8.712,0,0,1-.288,2.619,1.885,1.885,0,0,1-1.084,1.179A7.782,7.782,0,0,1,0,33.821V34.2H12.548v-.384a14.3,14.3,0,0,1-3.485-.459A2.437,2.437,0,0,1,7.5,32.089,6.832,6.832,0,0,1,7.067,29.3V17.763h4.807q3.078,0,4.425,1.514t1.729,5.216h.384V10.408h-.384q-.386,3.7-1.729,5.191t-4.425,1.491H7.067V1.225h5.1a15.529,15.529,0,0,1,5.649.84A6.994,6.994,0,0,1,21.179,4.95a20.294,20.294,0,0,1,2.188,5.888h.384L22.693.551ZM39.472,35.167q5.336,0,8.39-2.572a8.836,8.836,0,0,0,3.052-7.14,8.335,8.335,0,0,0-1.706-5.361,13.362,13.362,0,0,0-5.265-3.676L38.7,14.061a27.984,27.984,0,0,1-4.063-2.092,6.233,6.233,0,0,1-2.066-2.09,5.934,5.934,0,0,1-.651-2.935,5.755,5.755,0,0,1,2.092-4.758A8.665,8.665,0,0,1,39.614.5q4.665,0,7,2.74t2.715,8.366h.337V1.658A19.314,19.314,0,0,0,40.817-.411a12.435,12.435,0,0,0-7.933,2.357A7.769,7.769,0,0,0,29.9,8.388a8.061,8.061,0,0,0,1.828,5.5,15.838,15.838,0,0,0,5.722,3.775l4.568,2.02a14.351,14.351,0,0,1,4.856,3.052,6.022,6.022,0,0,1,1.488,4.254A6.911,6.911,0,0,1,46.3,32.354a8.14,8.14,0,0,1-5.722,1.9,9.208,9.208,0,0,1-7.451-3.077,14.381,14.381,0,0,1-2.981-8.462H29.76V32.763a20.325,20.325,0,0,0,4.687,1.779,20.834,20.834,0,0,0,5.024.625m50.143-17.02H75.48v.386a24.184,24.184,0,0,1,4.664.744,3.255,3.255,0,0,1,1.97,1.395,6,6,0,0,1,.529,2.86v7.741a6.5,6.5,0,0,1-3.075,2.139,12.75,12.75,0,0,1-4.664.842,11.881,11.881,0,0,1-7.044-2.165,14.153,14.153,0,0,1-4.76-6.082,22.261,22.261,0,0,1-1.706-8.965,22.293,22.293,0,0,1,1.587-8.776,12.845,12.845,0,0,1,4.542-5.745A12.021,12.021,0,0,1,74.471.5,9.712,9.712,0,0,1,81.995,3.46Q84.712,6.415,84.9,11.8h.48V1.08a34.736,34.736,0,0,0-9.95-1.491,19.814,19.814,0,0,0-9.447,2.139,14.793,14.793,0,0,0-6.178,6.131,19.466,19.466,0,0,0-2.165,9.422,19.418,19.418,0,0,0,2.188,9.351,15.563,15.563,0,0,0,6.129,6.3A18.026,18.026,0,0,0,75,35.167,18.552,18.552,0,0,0,85.816,31.8V22.331A6.889,6.889,0,0,1,86.107,20a1.81,1.81,0,0,1,1.081-1.058,8.39,8.39,0,0,1,2.427-.407Zm41.924.962a15.435,15.435,0,0,0,8.75-2.258q3.363-2.261,3.365-7.021t-3.365-7.018a15.416,15.416,0,0,0-8.75-2.261H120.145V.935a4.431,4.431,0,0,1,3.052.915,4.3,4.3,0,0,1,.747,2.883V29.541a8.887,8.887,0,0,1-.29,2.644,1.882,1.882,0,0,1-1.081,1.2,7.8,7.8,0,0,1-2.427.433V34.2h12.548v-.384a14.321,14.321,0,0,1-3.487-.459,2.432,2.432,0,0,1-1.561-1.273,6.792,6.792,0,0,1-.433-2.787V19.108Zm-.915-17.884q4.616,0,7.021,2.066t2.4,6.538q0,4.472-2.4,6.538t-7.021,2.066h-3.412V1.225ZM149.181,34.2h10.865v-.384a7.782,7.782,0,0,1-2.427-.433,1.891,1.891,0,0,1-1.083-1.2,8.982,8.982,0,0,1-.288-2.644V17.33h3.318a10.442,10.442,0,0,1,3.461.456,4.932,4.932,0,0,1,2.162,1.587,17.5,17.5,0,0,1,2.02,3.534l2.694,5.867q1.825,3.991,2.691,5.432h6.155v-.384a5.031,5.031,0,0,1-3.028-1.395,11.666,11.666,0,0,1-2.357-3.7l-2.789-6.2a8.851,8.851,0,0,0-3.508-4.135,9.966,9.966,0,0,0-5.193-1.346V16.85a13.183,13.183,0,0,0,7.643-2.116,6.956,6.956,0,0,0,3.077-6.108,7,7,0,0,0-2.764-6.08q-2.766-2-9.063-2H149.181V.935a4.438,4.438,0,0,1,3.054.915,4.306,4.306,0,0,1,.744,2.883V29.541a8.982,8.982,0,0,1-.288,2.644,1.882,1.882,0,0,1-1.081,1.2,7.8,7.8,0,0,1-2.429.433Zm7.067-17.549V1.225h4.086a12.818,12.818,0,0,1,5.41.913,4.944,4.944,0,0,1,2.572,2.525,10.436,10.436,0,0,1,.672,4.013q0,4.135-2.258,6.059t-7.5,1.921Zm40.338,18.511a15.288,15.288,0,0,0,8.294-2.307,16.009,16.009,0,0,0,5.769-6.37,19.608,19.608,0,0,0,2.092-9.11,19.611,19.611,0,0,0-2.092-9.113A16.009,16.009,0,0,0,204.88,1.9a16.059,16.059,0,0,0-16.587,0,15.975,15.975,0,0,0-5.769,6.37,19.611,19.611,0,0,0-2.092,9.113,19.608,19.608,0,0,0,2.092,9.11,15.975,15.975,0,0,0,5.769,6.37,15.288,15.288,0,0,0,8.294,2.307m0-.913A10.723,10.723,0,0,1,187.38,29.9q-3.2-4.349-3.2-12.522,0-8.368,3.126-12.621T196.586.5q6.154,0,9.279,4.257t3.124,12.621q0,8.172-3.2,12.522a10.726,10.726,0,0,1-9.206,4.353M220.142,38a5.763,5.763,0,0,0,4.76-2.02,9.044,9.044,0,0,0,1.636-5.818V4.733a6.936,6.936,0,0,1,.288-2.331,1.81,1.81,0,0,1,1.081-1.058,8.46,8.46,0,0,1,2.429-.41V.551H219.471V.935a4.431,4.431,0,0,1,3.052.915,4.292,4.292,0,0,1,.747,2.883V31.415q0,6.108-4.472,6.108a8.4,8.4,0,0,1-1.779-.145v.145a8.122,8.122,0,0,0,3.124.48m40.675-15.962a32.51,32.51,0,0,1-1.708,7.093,6.3,6.3,0,0,1-3,3.389,13.336,13.336,0,0,1-5.818,1.009h-6.634V17.281h4.809a7.014,7.014,0,0,1,3.22.627,4.252,4.252,0,0,1,1.874,2.066,15.011,15.011,0,0,1,1.058,4.039H255V9.926h-.386a15.011,15.011,0,0,1-1.058,4.039,4.125,4.125,0,0,1-1.874,2.043,7.261,7.261,0,0,1-3.22.6h-4.809V1.225h6.779a11.209,11.209,0,0,1,4.928.864,6.114,6.114,0,0,1,2.691,2.839,28.237,28.237,0,0,1,1.9,5.911h.384L259.277.551H236.584V.935a4.438,4.438,0,0,1,3.054.915,4.306,4.306,0,0,1,.744,2.883V29.541a8.983,8.983,0,0,1-.288,2.644,1.882,1.882,0,0,1-1.081,1.2,7.8,7.8,0,0,1-2.429.433V34.2H260l1.2-12.164ZM279.758.551H268.893V.935a4.431,4.431,0,0,1,3.052.915,4.292,4.292,0,0,1,.747,2.883V29.541a8.982,8.982,0,0,1-.288,2.644,1.891,1.891,0,0,1-1.083,1.2,7.8,7.8,0,0,1-2.427.433V34.2h10.865v-.384a7.8,7.8,0,0,1-2.429-.433,1.882,1.882,0,0,1-1.081-1.2,8.981,8.981,0,0,1-.288-2.644V4.733a6.935,6.935,0,0,1,.288-2.331,1.81,1.81,0,0,1,1.081-1.058,8.46,8.46,0,0,1,2.429-.41Zm-.913,14.518,9.9-9.613a21.773,21.773,0,0,1,4.158-3.414A9.881,9.881,0,0,1,296.633.935V.551h-9.712V.935a7.55,7.55,0,0,1,2.476.337,1.056,1.056,0,0,1,.648,1.058,2.132,2.132,0,0,1-.529,1.226A21,21,0,0,1,287.4,5.744L275.96,16.705,291.1,34.2h7.358v-.384a6.35,6.35,0,0,1-2.981-.747,17.246,17.246,0,0,1-2.836-2.427ZM326.105-.362a2.816,2.816,0,0,1-1.3.7A9.073,9.073,0,0,1,322.6.551H303.654a9.047,9.047,0,0,1-2.212-.215,2.816,2.816,0,0,1-1.3-.7H299.9V11.465h.386a23.521,23.521,0,0,1,1.369-6.756,4.824,4.824,0,0,1,2.525-2.764,13.348,13.348,0,0,1,4.662-.625h2.644V29.3a6.792,6.792,0,0,1-.433,2.787,2.438,2.438,0,0,1-1.561,1.273,14.339,14.339,0,0,1-3.487.459V34.2h14.231v-.384a14.316,14.316,0,0,1-3.485-.459,2.443,2.443,0,0,1-1.563-1.273,6.832,6.832,0,0,1-.433-2.787V1.321H317.4a13.354,13.354,0,0,1,4.664.625,4.824,4.824,0,0,1,2.525,2.764,23.521,23.521,0,0,1,1.369,6.756h.386V-.362Zm29.76,22.4a32.506,32.506,0,0,1-1.708,7.093,6.3,6.3,0,0,1-3,3.389,13.336,13.336,0,0,1-5.818,1.009H338.7V17.281h4.809a7.014,7.014,0,0,1,3.22.627,4.241,4.241,0,0,1,1.874,2.066,15.014,15.014,0,0,1,1.058,4.039h.386V9.926h-.386a15.014,15.014,0,0,1-1.058,4.039,4.115,4.115,0,0,1-1.874,2.043,7.262,7.262,0,0,1-3.22.6H338.7V1.225h6.78a11.194,11.194,0,0,1,4.928.864A6.114,6.114,0,0,1,353.1,4.927a28.1,28.1,0,0,1,1.9,5.911h.384L354.326.551H331.633V.935a4.438,4.438,0,0,1,3.054.915,4.306,4.306,0,0,1,.744,2.883V29.541a8.982,8.982,0,0,1-.288,2.644,1.882,1.882,0,0,1-1.081,1.2,7.8,7.8,0,0,1-2.429.433V34.2h23.413l1.2-12.164Z" transform="translate(0 3.573)" fill="#765534"/>
      <path id="Path_230" data-name="Path 230" d="M0,0V41.756" transform="translate(105.145)" fill="#a2805d" stroke="#a2805d" stroke-width="1"/>
    </g>
  </g>
</svg>
