<svg xmlns="http://www.w3.org/2000/svg" width="68.47" height="84.608" viewBox="0 0 68.47 84.608">
  <g id="Group_530" data-name="Group 530" transform="translate(0 0)">
    <path id="Path_624" data-name="Path 624" d="M37.574,39.083c-.587.046-1.184.073-1.808.073a25.593,25.593,0,0,1-11.994-2.973V27.2s0-.734-.055-1.211a5.287,5.287,0,0,0-.174-.835,13.54,13.54,0,0,0-3.854-6.791c-1.9-1.606-4.992-2.441-9.26-2.441h-6.3V35.513H10.07c5.047,0,6.947-2.138,7.6-8.25h.477v17.4h-.477c-.652-6.121-2.551-8.314-7.6-8.314H4.132V50.6c0,2.248.413,3.735,1.3,4.387.835.716,2.671,1.129,5.46,1.193v.468H-4.6V56.18c1.955-.064,3.267-.477,3.854-1.129.532-.652.835-2.019.835-4.1V20.261c0-3.386-.89-4.515-4.689-4.689v-.477l28.513-.073.073,9.774s.028.67.064,1.083a8.318,8.318,0,0,0,.22,1.294c1.643,6.525,6.167,10.856,12.857,10.856,5.993,0,9.618-3.267,9.618-8.966,0-4.332-2.313-6.653-7.837-9.021l-5.644-2.5c-6.406-2.79-9.315-5.818-9.315-11.462,0-6.341,4.634-10.609,12.141-10.856A66.577,66.577,0,0,1,48.054-3.728V10.065h-.422C47.632-.737,43.695-3.866,36-3.774,30.25-3.7,26.442-.681,26.442,4.3a6.444,6.444,0,0,0,1.79,4.873,23.153,23.153,0,0,0,6.589,3.919L41.29,16c5.873,2.551,8.608,5.873,8.608,11.159,0,4.616-2,8.067-5.57,10.058-.395.22-1.542.771-1.542.771a34.547,34.547,0,0,1,4.772-.34,64.786,64.786,0,0,1,12.251,1.487V52.7h-.578c0-9.25-5.726-13.977-13.307-13.977-.312,0-.89-.009-1.4.028-.881.046-1.716.138-1.716.138a13.33,13.33,0,0,0-8.865,5.139c-2.8,3.533-4.221,8.324-4.221,14.307,0,6.094,1.478,11,4.442,14.766a14.463,14.463,0,0,0,11.609,5.653,11.6,11.6,0,0,0,9.847-5.983V66.026c0-2.221-.514-3.643-1.487-4.387-1.028-.679-3.359-1.193-7.011-1.542v-.45H63.875v.45c-3.7.174-4.065.459-4.065,4.047v8.792c-.964,1.019-5.176,6.892-13.683,6.892-6.525,0-11.407-2.01-15.151-5.873-3.827-3.937-5.708-9.012-5.708-15.335,0-6.442,1.881-11.572,5.708-15.335a18.083,18.083,0,0,1,6.6-4.2" transform="translate(4.595 4.78)" fill="#9d7953"/>
  </g>
</svg>
