<svg xmlns="http://www.w3.org/2000/svg" xmlns:xlink="http://www.w3.org/1999/xlink" width="379.999" height="104.003" viewBox="0 0 379.999 104.003">
  <defs>
    <clipPath id="clip-path">
      <path id="Path_224" data-name="Path 224" d="M0-46.228H380v-104H0Z" fill="#fff"/>
    </clipPath>
  </defs>
  <g id="Group_125" data-name="Group 125" transform="translate(0 150.231)" clip-path="url(#clip-path)">
    <g id="Group_123" data-name="Group 123" transform="translate(0.346 -149.885)">
      <path id="Path_222" data-name="Path 222" d="M-167.333-10.234c0-13.606-14.353-23.024-30.649-23.024-15.549,0-30.8,11.063-30.8,26.313,0,13.456,9.868,20.333,21.23,25.417-15.4,4.784-24.37,14.2-24.37,25.716,0,15.1,13.754,25.417,34.387,25.417,15.4,0,33.042-11.513,33.042-27.361,0-15.549-12.559-22.875-25.715-28.257,14.353-4.934,22.875-12.409,22.875-24.22m-38.873,29.3c1.794.748,3.589,1.495,5.383,2.093,13.157,5.083,26.463,10.765,26.463,24.519,0,17.044-12.11,22.576-25.118,22.576-13.755,0-22.875-8.672-22.875-24.37,0-11.512,5.233-20.184,16.147-24.819m29.3-28.706c0,10.017-4.634,18.09-14.8,23.024a5.357,5.357,0,0,1-1.645-.6c-13.306-4.933-26.164-10.615-26.164-23.174,0-15.549,9.867-21.38,21.678-21.38,12.409,0,20.931,8.073,20.931,22.128m-99.7,26.612v-.448c21.23-4.635,30.2-15.1,30.2-26.314,0-13.456-10.017-23.473-31.247-23.473-17.941,0-29.3,10.166-29.3,18.987,0,4.934,2.99,8.522,7.625,8.522,4.784,0,7.027-3.887,7.027-7.774s-2.84-6.878-6.728-7.924c3.14-6.13,11.961-10.466,20.333-10.466,13.007,0,20.782,7.475,20.782,22.726,0,17.194-8.672,25.267-28.407,25.267h-1.794v1.495h4.037c17.792,0,28.706,7.625,28.706,25.118,0,16.6-6.578,25.566-24.071,25.566-11.662,0-19.286-5.532-21.828-10.167,3.738-1.943,6.279-4.933,6.279-8.97,0-3.738-2.242-7.476-7.027-7.476-4.934,0-7.924,3.887-7.924,9.12,0,8.821,11.363,18.839,30.8,18.839,22.726,0,35.285-11.214,35.285-27.959,0-14.8-12.409-22.875-32.742-24.669m-88.254,50.534h52.777v-.748c-17.941-.15-20.931-1.345-20.931-10.017V-32.062l-31.1,2.542v.6c18.987.3,20.184,1.046,20.184,10.914V56.746c0,8.971-3.289,9.867-20.931,10.017ZM-371.433,2.72c0-20.931-15.7-35.285-33.042-35.285-16.745,0-33.191,14.951-33.191,35.732,0,20.931,15.7,35.285,33.042,35.285,16.745,0,33.191-14.951,33.191-35.732m-11.213.3c0,24.669-8.672,34.238-21.23,34.238-12.708,0-22.576-9.718-22.576-34.387s8.671-34.237,21.23-34.237c12.708,0,22.576,9.718,22.576,34.387m-51.713-34.835v-.748h-37.676v.748c16.6,1.794,18.539,3.289,18.539,11.961V49.122h-.3l-63.093-81.686H-543.8v.6c15.1,1.644,18.091,5.233,18.091,12.409V54.8c0,8.522-1.943,10.167-18.091,11.961v.748h38.424v-.748c-16.6-1.794-18.539-3.289-18.539-11.961V-22.4h.3l71.016,92.45h.9V-19.856c0-8.223,1.645-10.167,17.343-11.961m60.943,78.147h-62.265v1.653h62.265Z" transform="translate(543.8 33.258)" fill="#fff"/>
    </g>
    <g id="Group_124" data-name="Group 124" transform="translate(0.346 -149.885)">
      <path id="Path_223" data-name="Path 223" d="M-167.333-10.234c0-13.606-14.353-23.024-30.649-23.024-15.549,0-30.8,11.063-30.8,26.313,0,13.456,9.868,20.333,21.23,25.417-15.4,4.784-24.37,14.2-24.37,25.716,0,15.1,13.754,25.417,34.387,25.417,15.4,0,33.042-11.513,33.042-27.361,0-15.549-12.559-22.875-25.715-28.257C-175.855,9.053-167.333,1.577-167.333-10.234Zm-38.873,29.3c1.794.748,3.589,1.495,5.383,2.093,13.157,5.083,26.463,10.765,26.463,24.519,0,17.044-12.11,22.576-25.118,22.576-13.755,0-22.875-8.672-22.875-24.37C-222.353,32.377-217.12,23.7-206.206,19.07Zm29.3-28.706c0,10.017-4.634,18.09-14.8,23.024a5.357,5.357,0,0,1-1.645-.6c-13.306-4.933-26.164-10.615-26.164-23.174,0-15.549,9.867-21.38,21.678-21.38C-185.424-31.763-176.9-23.69-176.9-9.636Zm-99.7,26.612v-.448c21.23-4.635,30.2-15.1,30.2-26.314,0-13.456-10.017-23.473-31.247-23.473-17.941,0-29.3,10.166-29.3,18.987,0,4.934,2.99,8.522,7.625,8.522,4.784,0,7.027-3.887,7.027-7.774s-2.84-6.878-6.728-7.924c3.14-6.13,11.961-10.466,20.333-10.466,13.007,0,20.782,7.475,20.782,22.726,0,17.194-8.672,25.267-28.407,25.267h-1.794v1.495h4.037c17.792,0,28.706,7.625,28.706,25.118,0,16.6-6.578,25.566-24.071,25.566-11.662,0-19.286-5.532-21.828-10.167,3.738-1.943,6.279-4.933,6.279-8.97,0-3.738-2.242-7.476-7.027-7.476-4.934,0-7.924,3.887-7.924,9.12,0,8.821,11.363,18.839,30.8,18.839,22.726,0,35.285-11.214,35.285-27.959C-243.863,26.844-256.272,18.771-276.606,16.977Zm-88.254,50.534h52.777v-.748c-17.941-.15-20.931-1.345-20.931-10.017V-32.062l-31.1,2.542v.6c18.987.3,20.184,1.046,20.184,10.914V56.746c0,8.971-3.289,9.867-20.931,10.017ZM-371.433,2.72c0-20.931-15.7-35.285-33.042-35.285-16.745,0-33.191,14.951-33.191,35.732,0,20.931,15.7,35.285,33.042,35.285C-387.879,38.453-371.433,23.5-371.433,2.72Zm-11.213.3c0,24.669-8.672,34.238-21.23,34.238-12.708,0-22.576-9.718-22.576-34.387s8.671-34.237,21.23-34.237C-392.513-31.368-382.646-21.65-382.646,3.019Zm-51.713-34.835v-.748h-37.676v.748c16.6,1.794,18.539,3.289,18.539,11.961V49.122h-.3l-63.093-81.686H-543.8v.6c15.1,1.644,18.091,5.233,18.091,12.409V54.8c0,8.522-1.943,10.167-18.091,11.961v.748h38.424v-.748c-16.6-1.794-18.539-3.289-18.539-11.961V-22.4h.3l71.016,92.45h.9V-19.856C-451.7-28.079-450.057-30.023-434.359-31.817Zm60.943,78.147h-62.265v1.653h62.265Z" transform="translate(543.8 33.258)" fill="#fff"/>
    </g>
  </g>
</svg>
