<svg xmlns="http://www.w3.org/2000/svg" xmlns:xlink="http://www.w3.org/1999/xlink" width="155.396" height="283.781" viewBox="0 0 155.396 283.781">
  <defs>
    <clipPath id="clip-path">
      <path id="Path_109" data-name="Path 109" d="M0,102.339H155.4V-181.442H0Z" transform="translate(0 181.442)" fill="#fff"/>
    </clipPath>
  </defs>
  <g id="Group_130" data-name="Group 130" transform="translate(0 181.442)" style="isolation: isolate">
    <g id="Group_9" data-name="Group 9" transform="translate(32.992 70.975)">
      <path id="Path_101" data-name="Path 101" d="M0,0H2.127V4.536H7.154V0H9.267V11.33H7.154V6.287H2.127V11.33H0Z" fill="#fff"/>
    </g>
    <g id="Group_17" data-name="Group 17" transform="translate(0 -181.442)" clip-path="url(#clip-path)">
      <g id="Group_10" data-name="Group 10" transform="translate(45.196 252.417)">
        <path id="Path_102" data-name="Path 102" d="M1.116,3.047l-1,2.881h-2.1L1.934-5.4H4.587L8.664,5.928H6.421L5.389,3.047ZM4.9,1.278C4.013-1.309,3.475-2.848,3.2-3.813H3.181C2.9-2.749,2.31-.932,1.592,1.278Z" transform="translate(1.979 5.402)" fill="#fff"/>
      </g>
      <g id="Group_11" data-name="Group 11" transform="translate(58.715 252.417)">
        <path id="Path_103" data-name="Path 103" d="M3.448,2.479c0-1.982.031-4.142.081-5.385H3.448C2.941-.763,1.565,3.382.4,6.934H-1.43C-2.3,3.9-3.723-.794-4.231-2.94H-4.3c.1,1.326.145,3.716.145,5.666V6.934H-6.113V-4.4h3.159C-1.921-1.237-.728,2.758-.382,4.363h.031C-.088,3,1.368-1.3,2.449-4.4H5.494V6.934H3.448Z" transform="translate(6.113 4.396)" fill="#fff"/>
      </g>
      <g id="Group_12" data-name="Group 12" transform="translate(74.474 252.417)">
        <path id="Path_104" data-name="Path 104" d="M0,0H4.747C7.367,0,8.43,1.376,8.43,2.881A2.526,2.526,0,0,1,6.924,5.338a2.744,2.744,0,0,1,1.852,2.62c0,2.014-1.573,3.372-3.882,3.372H0ZM4.47,4.553c1.323,0,1.849-.558,1.849-1.458S5.663,1.67,4.584,1.67H2.1V4.553ZM2.1,9.659H4.5c1.359,0,2.1-.59,2.1-1.752,0-1.015-.671-1.688-2.21-1.688H2.1Z" fill="#fff"/>
      </g>
      <g id="Group_13" data-name="Group 13" transform="translate(86.531 252.417)">
        <path id="Path_105" data-name="Path 105" d="M.768,0V6.779c0,2.341,1.245,3.012,2.537,3.012,1.506,0,2.506-.77,2.506-3.012V0H7.939V6.664c0,3.815-2.194,4.814-4.667,4.814-2.488,0-4.634-1.067-4.634-4.748V0Z" transform="translate(1.362)" fill="#fff"/>
      </g>
      <g id="Group_14" data-name="Group 14" transform="translate(99.836 252.417)">
        <path id="Path_106" data-name="Path 106" d="M.756,2.4V7.08h-2.1V-4.25h4.8c2.421,0,3.716,1.326,3.716,3.1A2.66,2.66,0,0,1,5.421,1.513c.688.213,1.523.834,1.523,2.847v.526A8.855,8.855,0,0,0,7.107,7.08H5.077a8.114,8.114,0,0,1-.213-2.5v-.2C4.865,3.018,4.5,2.4,2.6,2.4Zm0-1.719H2.95c1.472,0,2.061-.557,2.061-1.62,0-1.017-.655-1.589-1.98-1.589H.756Z" transform="translate(1.34 4.25)" fill="#fff"/>
      </g>
      <g id="Group_15" data-name="Group 15" transform="translate(111.355 252.252)">
        <path id="Path_107" data-name="Path 107" d="M3.679,4.145H2.105a6.957,6.957,0,0,1-.18-1.261,3.812,3.812,0,0,1-3.372,1.44c-3.274,0-5.075-2.488-5.075-5.713,0-3.391,1.932-5.961,5.452-5.961,2.815,0,4.5,1.573,4.8,3.536H1.614A2.535,2.535,0,0,0-1.1-5.646c-2.423,0-3.223,2-3.223,4.159,0,2.1.868,4.093,3.208,4.093C1.125,2.606,1.6,1.067,1.6-.242V-.356H-1.12V-2.109h4.8Z" transform="translate(6.522 7.349)" fill="#fff"/>
      </g>
      <g id="Group_16" data-name="Group 16" transform="translate(17.192 272.287)">
        <path id="Path_108" data-name="Path 108" d="M.768,0V6.779c0,2.341,1.245,3.012,2.537,3.012,1.506,0,2.506-.77,2.506-3.012V0H7.939V6.664c0,3.815-2.194,4.814-4.667,4.814-2.488,0-4.634-1.067-4.634-4.748V0Z" transform="translate(1.362)" fill="#fff"/>
      </g>
    </g>
    <g id="Group_18" data-name="Group 18" transform="translate(30.496 90.844)">
      <path id="Path_110" data-name="Path 110" d="M2.58,0V4.537H-2.446V0H-4.575V11.33h2.129V6.287H2.58V11.33H4.692V0Z" transform="translate(4.575)" fill="#fff"/>
    </g>
    <g id="Group_19" data-name="Group 19" transform="translate(43.915 90.844)">
      <path id="Path_111" data-name="Path 111" d="M0,0V11.33H7.614l.244-1.752H2.129V0Z" fill="#fff"/>
    </g>
    <g id="Group_20" data-name="Group 20" transform="translate(54.599 90.844)">
      <path id="Path_112" data-name="Path 112" d="M0,0V11.33H7.858L8.12,9.578H2.077V6.3H7.564V4.553H2.077V1.769H7.809V0Z" fill="#fff"/>
    </g>
    <g id="Group_22" data-name="Group 22" transform="translate(0 -181.442)" clip-path="url(#clip-path)">
      <g id="Group_21" data-name="Group 21" transform="translate(65.906 272.287)">
        <path id="Path_113" data-name="Path 113" d="M0,4.086V-7.244H2.685C4.173-4.657,7.1.287,7.661,1.516h.017C7.564.24,7.564-1.66,7.564-3.512V-7.244H9.511V4.086H6.99C5.663,1.795,2.5-3.756,1.882-5.05H1.866c.081,1.1.1,3.274.1,5.321V4.086Z" transform="translate(0 7.244)" fill="#fff"/>
      </g>
    </g>
    <g id="Group_23" data-name="Group 23" transform="translate(79.553 90.844)">
      <path id="Path_115" data-name="Path 115" d="M2.58,0V4.537H-2.447V0H-4.574V11.33h2.127V6.287H2.58V11.33H4.691V0Z" transform="translate(4.574)" fill="#fff"/>
    </g>
    <g id="Group_27" data-name="Group 27" transform="translate(0 -181.442)" clip-path="url(#clip-path)">
      <g id="Group_24" data-name="Group 24" transform="translate(92.352 272.122)">
        <path id="Path_116" data-name="Path 116" d="M3.9,2.085c0,3.144-1.849,5.878-5.483,5.878-3.488,0-5.336-2.585-5.336-5.828,0-3.275,2-5.831,5.483-5.831C1.841-3.7,3.9-1.337,3.9,2.085m-8.627,0c0,2.291,1.064,4.126,3.223,4.126,2.326,0,3.194-1.932,3.194-4.095,0-2.241-.982-4.059-3.225-4.059-2.226,0-3.192,1.752-3.192,4.027" transform="translate(6.918 3.696)" fill="#fff"/>
      </g>
      <g id="Group_25" data-name="Group 25" transform="translate(106.669 272.287)">
        <path id="Path_117" data-name="Path 117" d="M.756,2.4V7.08h-2.1V-4.25h4.8c2.421,0,3.716,1.326,3.716,3.1A2.662,2.662,0,0,1,5.421,1.513c.688.213,1.523.834,1.523,2.847v.526A8.855,8.855,0,0,0,7.107,7.08H5.077a8.17,8.17,0,0,1-.213-2.506v-.2C4.865,3.018,4.5,2.4,2.6,2.4Zm0-1.719H2.95c1.472,0,2.061-.557,2.061-1.62,0-1.017-.655-1.589-1.982-1.589H.756Z" transform="translate(1.34 4.25)" fill="#fff"/>
      </g>
      <g id="Group_26" data-name="Group 26" transform="translate(118.04 272.123)">
        <path id="Path_118" data-name="Path 118" d="M.774,2.97A2.266,2.266,0,0,0,3.328,4.755c1.458,0,2.061-.622,2.061-1.541,0-.981-.541-1.472-2.6-1.947C-.144.565-.964-.483-.964-2.041c0-1.864,1.394-3.225,4.029-3.225,2.9,0,4.06,1.6,4.224,3.194H5.145C5-2.876,4.523-3.646,3-3.646c-1.129,0-1.785.475-1.785,1.376,0,.884.541,1.245,2.424,1.684C6.9.188,7.568,1.431,7.568,2.97c0,1.982-1.491,3.406-4.4,3.406C.3,6.377-1.109,4.917-1.372,2.97Z" transform="translate(1.372 5.266)" fill="#fff"/>
      </g>
    </g>
    <g id="Group_28" data-name="Group 28" transform="translate(129.068 90.844)">
      <path id="Path_120" data-name="Path 120" d="M0,0V1.769H3.5V11.33h2.13V1.769h3.5V0Z" fill="#fff"/>
    </g>
    <g id="Group_30" data-name="Group 30" transform="translate(0 -181.442)" clip-path="url(#clip-path)">
      <g id="Group_29" data-name="Group 29" transform="translate(46.371 208.558)">
        <path id="Path_121" data-name="Path 121" d="M6.907,0H-8.97l-1.423,3.915c-1.724,4.847-2.28,8.333-1.519,10.534h22.8a6.264,6.264,0,0,0-.283-3.984Z" transform="translate(12.245)" fill="#fff"/>
      </g>
    </g>
    <g id="Group_31" data-name="Group 31" transform="translate(114.427 -63.431)">
      <path id="Path_123" data-name="Path 123" d="M0,7.5H14.735L7.4-13.291Z" transform="translate(0 13.291)" fill="#fff"/>
    </g>
    <g id="Group_34" data-name="Group 34" transform="translate(0 -181.442)" clip-path="url(#clip-path)">
      <g id="Group_32" data-name="Group 32" transform="translate(15.658 38.811)">
        <path id="Path_124" data-name="Path 124" d="M1.9,9.961c5.695,0,10.321-4.841,10.321-13.954,0-7.118-3.131-13.668-10.818-13.668H-.663c-1.706,0-2.706.854-2.706,2.563V6.686c0,2.279,1.426,3.275,5.269,3.275" transform="translate(3.369 17.661)" fill="#fff"/>
      </g>
      <g id="Group_33" data-name="Group 33" transform="translate(80.042 107.474)">
        <path id="Path_125" data-name="Path 125" d="M1.72,0H-.344C-2.052,0-3.05.856-3.05,2.565V24.347c0,2.279,1.423,3.274,5.268,3.274,5.695,0,10.323-4.839,10.323-13.953C12.54,6.549,9.409,0,1.72,0" transform="translate(3.05)" fill="#fff"/>
      </g>
    </g>
    <g id="Group_35" data-name="Group 35" transform="translate(50.218 4.619)">
      <path id="Path_127" data-name="Path 127" d="M0,7.5H14.735L7.4-13.291Z" transform="translate(0 13.291)" fill="#fff"/>
    </g>
    <g id="Group_37" data-name="Group 37" transform="translate(0 -181.442)" clip-path="url(#clip-path)">
      <g id="Group_36" data-name="Group 36" transform="translate(0.001 0.001)">
        <path id="Path_128" data-name="Path 128" d="M51.986,57.113V56.9H37.279v-.427c3.987-.286,5.34-2.99,3.987-6.764l-3.7-10.465H21.687l-1.423,3.916c-2.99,8.4-2.492,12.742,2.349,13.313V56.9H10.653v-.427c3.417-.429,5.2-5.2,8.26-13.742L32.793,4.223h.569L49.025,47.791A27.058,27.058,0,0,0,51.986,54.3V-75.667l-30.711,0v-25.592h-73.2v25.592l-30.863,0v12.079h12.406c11.391,0,17.728,5.982,17.728,14.381,0,10.111-6.051,16.091-16.591,16.091a21.193,21.193,0,0,1-7.259-1.353v13.455c0,5.268.569,8.827,5.412,8.827v.427h-11.7V5.076h34.431l1,11.25h-.429C-51.708,8-54.2,6.214-61.034,6.214h-2.207V47.649c0,5.269.285,8.829,5.124,8.829V56.9H-76.343v-.427c4.842,0,5.127-3.56,5.127-8.829V6.214h-2.207c-4.386,0-7,.762-9.37,3.56V57.113l-9.375,0v64.634h7.1a19.1,19.1,0,0,0,.619-6.048V82.383c0-5.271-.285-8.829-5.127-8.829v-.427h18.226v.427c-4.841,0-5.125,3.558-5.125,8.829V120.54a6.533,6.533,0,0,0,.1,1.207h14.358c2.7-1.794,4.949-4.98,7.537-10.463h.427l-1.417,10.463h5.551c1.491-2.3,2.84-5.987,4.62-10.961l13.884-38.514h.569l15.664,43.569a31.591,31.591,0,0,0,2.574,5.906H-.353A19.1,19.1,0,0,0,.266,115.7V82.383c0-5.271-.285-8.829-5.125-8.829v-.427H13.365v.427c-4.841,0-5.125,3.558-5.125,8.829V115.7a18.955,18.955,0,0,0,.622,6.048H20.511l-.382-10.6h.425c1.664,4.766,3.837,8.313,6.5,10.6H43a9.908,9.908,0,0,0,2.826-7.187c0-6.478-5.127-9.186-11.108-12.1l-3.63-1.78c-4.769-2.349-9.9-5.7-9.9-13.67,0-8.471,6.122-14.736,14.88-14.736a35.353,35.353,0,0,1,12.813,2.848v9.254h-.425c-3.2-7.689-7.4-11.106-12.816-11.106-5.765,0-9.469,3.843-9.469,9.611,0,5.981,4.556,8.188,8.9,10.323l3.632,1.78c6.194,3.061,12.1,6.408,12.1,15.163a15.151,15.151,0,0,1-5.063,11.6H63.226V57.114Zm-18.365-69.3c4.841,0,5.125-3.56,5.125-8.827V-54.332c0-5.268-.285-8.827-5.125-8.827v-.429H51.845v.429c-4.841,0-5.125,3.56-5.125,8.827v33.319c0,5.268.285,8.827,5.125,8.827v.427H33.621Zm-3.774-51.4,1,11.25h-.429c-3.915-8.328-6.406-10.11-13.241-10.11H14.97v41.434c0,5.268.285,8.827,5.124,8.827v.427H1.869v-.427c4.841,0,5.125-3.56,5.125-8.827V-62.448H4.789c-6.764,0-9.326,1.781-13.241,10.11H-8.88l1-11.25Zm-43.5-25.19H-3.541v2.29h-7.423v3.605h7.1v2.269h-7.1v4.24H-3.14L-3.476-74.1H-13.655Zm-12.149,0h2.757v12.4h7.423l-.321,2.269H-25.8ZM-50.882-11.759v-.427c4.841,0,5.125-3.56,5.125-8.827V-54.332c0-5.268-.285-8.827-5.125-8.827v-.429h35.453l.926,11.25h-.429c-3.913-8.328-6.549-10.11-14.38-10.11h-8.471V-39.31h6.477c6.622,0,8.332-1.78,9.753-7.048h.427v15.8h-.427c-1.422-5.269-3.131-7.617-9.753-7.617h-6.477v21.926c0,2.135.64,3.347,2.847,3.347h6.622c7.4,0,10.678-1.567,15.234-11.463h.427l-1.706,12.6ZM-40.27,44.76l4.254-9.064a1.541,1.541,0,0,1,2.091-.6,1.54,1.54,0,0,1,.447,2.129l-6.022,8a.468.468,0,0,1-.635.181.467.467,0,0,1-.136-.646m-.666-.461a.433.433,0,0,1-.407.454.432.432,0,0,1-.407-.454l-.934-9.353a1.424,1.424,0,0,1,1.34-1.5A1.423,1.423,0,0,1-40,34.946ZM-48.7,35.1a1.538,1.538,0,0,1,2.09.6l4.256,9.064a.467.467,0,0,1-.136.646.468.468,0,0,1-.635-.181l-6.022-8A1.539,1.539,0,0,1-48.7,35.1m-6.417,13.817a1.377,1.377,0,0,1,1.29-1.455l8.852.177a.42.42,0,0,1,.461.369.419.419,0,0,1-.393.443L-53.6,50.128a1.377,1.377,0,0,1-1.519-1.215m10.717.652c-.008.006-.109.117-.3.327q-.7.774-2.219,2.584A17.693,17.693,0,0,1-48.578,54.3a2.61,2.61,0,0,1-1.242.677.935.935,0,0,1-.927-.277.779.779,0,0,1-.064-.834,2.7,2.7,0,0,1,.776-1.039,11.433,11.433,0,0,1,1.042-.7q1.009-.608,2.021-1.211a18.077,18.077,0,0,0,1.844-1.232,3.541,3.541,0,0,1,.5-.361c.1-.056.18-.052.236.013a.168.168,0,0,1,0,.227m.4-2.8a.475.475,0,0,1-.651.156l-8.943-4.138a1.558,1.558,0,0,1-.544-2.133A1.557,1.557,0,0,1-52,40.135l7.831,5.981a.472.472,0,0,1,.166.647m3.126,4.623c-.1,1.955-.136,9.222-.471,9.222s-.371-7.266-.472-9.222A2.648,2.648,0,0,1-43.294,48.8c0-1.48.873-2.679,1.95-2.679s1.95,1.2,1.95,2.679a2.649,2.649,0,0,1-1.48,2.592m2.248-4.623a.472.472,0,0,1,.164-.647l7.833-5.981a1.555,1.555,0,0,1,2.14.513,1.558,1.558,0,0,1-.543,2.133l-8.945,4.138a.472.472,0,0,1-.649-.156m6.749,7.936a.936.936,0,0,1-.927.277,2.61,2.61,0,0,1-1.242-.677,17.841,17.841,0,0,1-1.661-1.824q-1.518-1.806-2.218-2.584c-.191-.21-.292-.321-.3-.327a.168.168,0,0,1,0-.227c.056-.064.135-.069.236-.013a3.639,3.639,0,0,1,.5.361,17.9,17.9,0,0,0,1.844,1.232q1.011.6,2.019,1.211a11.559,11.559,0,0,1,1.043.7,2.7,2.7,0,0,1,.776,1.039.779.779,0,0,1-.064.834m2.85-4.572-8.694-1.681A.419.419,0,0,1-38.112,48a.419.419,0,0,1,.461-.369l8.852-.177a1.374,1.374,0,0,1,1.289,1.455,1.375,1.375,0,0,1-1.517,1.215m24.16-14.58a21.16,21.16,0,0,1-7.26-1.354V47.649c0,5.269.571,8.829,5.412,8.829V56.9H-25.224v-.427c4.841,0,5.125-3.56,5.125-8.829V14.33c0-5.268-.285-8.827-5.125-8.827V5.076H-6c11.391,0,17.727,5.979,17.727,14.38,0,10.111-6.051,16.092-16.59,16.092" transform="translate(92.168 101.258)" fill="#fff"/>
      </g>
    </g>
  </g>
</svg>
